<svg xmlns="http://www.w3.org/2000/svg" viewBox="0 0 960 540" role="img" aria-labelledby="title desc">
  <title id="title">ShowMeWhy</title>
  <desc id="desc">ShowMeWhy Socratic thinker logo with hidden dialogue profile and flowing S-shaped hair.</desc>
  <g transform="translate(250 24) scale(.82)" fill="none" stroke="#0A0A0A" stroke-linecap="round" stroke-linejoin="round">
    <path stroke-width="24" d="M116 202C128 123 204 78 294 90c51 7 87 36 96 82"/>
    <path stroke-width="28" d="M96 286c20-74 75-109 133-115 53-6 91-32 112-78"/>
    <path stroke-width="26" d="M88 352c30-57 75-83 126-87 54-4 91-34 112-86"/>
    <path stroke-width="24" d="M105 391c42-31 88-39 134-25 39 12 68 38 86 73"/>
    <path stroke-width="21" d="M357 143c20 17 32 42 34 75l18 54-31 9c-3 30-13 58-31 82-14 19-29 31-47 39"/>
    <path stroke-width="18" d="M337 207l22-8 18 8"/>
    <path stroke-width="20" d="M372 297c-17 1-31 8-41 22-9 13-15 31-18 53"/>
    <path stroke-width="22" d="M324 330c-18 21-27 47-25 75 2 25 15 46 35 62"/>
    <path stroke-width="20" d="M292 312c-14 18-20 38-19 59 2 25 13 47 32 64"/>
    <path stroke-width="20" d="M372 311c28 15 47 39 55 72l19 78"/>
    <path stroke-width="19" d="M378 329c-18 18-30 36-36 54-6 18-7 37-3 58"/>
    <path stroke-width="17" d="M350 382c18 11 23 27 15 47-6 15-5 29 4 42"/>
    <path stroke-width="12" d="M274 206c-16 11-26 26-30 45-3 18 1 31 12 41l-9 11 15 8c2 18 9 33 22 45"/>
    <path stroke-width="10" d="M251 269l12 4"/>
  </g>
  <text x="480" y="505" text-anchor="middle" fill="#0A0A0A" font-family="Georgia, 'Times New Roman', serif" font-size="92" letter-spacing="-3">ShowMeWhy</text>
</svg>
